<svg width="1000" height="1000" viewBox="0 0 1000 1000" fill="none" xmlns="http://www.w3.org/2000/svg">
<path d="M486.698 316.106C490.643 344.183 487.228 510.749 486.698 519.855C486.169 528.961 485.71 546.692 476.833 549.071C460.341 553.49 450.291 529.738 433.579 513.026C409.676 489.122 369.501 474.783 353.142 469.392C319.752 458.389 215.411 418.292 204.029 411.72C195.814 406.977 189.436 401.855 180.505 388.196C174.054 378.331 168.151 349.115 165.328 325.591C162.505 302.067 160.395 258.746 160.395 251.984C160.395 248.247 161.154 241.739 166.086 231.874C170.032 223.982 174.813 218.974 181.643 214.041C194.978 203.965 211.087 192.035 215.791 188.999C220.494 185.964 225.656 183.564 233.624 184.067C295.722 187.988 422.728 202.127 446.1 224.286C469.472 246.444 482.754 288.029 486.698 316.106Z" fill="#FDB002" stroke="#FDB002" stroke-width="7"/>
<path d="M256.155 522.065C258.584 566.381 264.123 588.464 273.609 602.882C283.094 617.3 285.143 637.637 276.644 661.313C266.021 690.908 257.091 699.634 250.464 699.634C243.635 699.634 240.22 686.734 237.184 674.213C234.225 662.006 206.831 539.898 203.795 528.136C200.76 516.374 190.516 472.74 192.033 447.698C193.247 427.665 222.888 438.592 227.699 444.663C239.714 456.298 253.727 477.748 256.155 522.065Z" fill="#FDB002" stroke="#FDB002" stroke-width="7"/>
<path d="M295.995 665.107L280.059 705.325C274.798 718.223 267.491 746.598 271.332 758.444C275.885 772.483 309.774 797.839 350.632 821.428C388.194 843.115 437.899 852.415 461.423 855.576C481.532 858.279 489.121 841.158 489.121 792.972C489.121 686.734 490.638 638.81 484.568 631.338C474.703 619.197 455.732 621.853 428.034 646.515C400.336 671.177 367.184 666.669 350.632 662.071C336.972 658.277 326.728 650.309 315.345 648.033C306.239 646.211 298.651 658.656 295.995 665.107Z" fill="#FDB002" stroke="#FDB002" stroke-width="7"/>
<path d="M512.58 316.106C508.635 344.183 512.05 510.749 512.58 519.855C513.109 528.961 513.568 546.692 522.445 549.071C538.937 553.49 548.987 529.738 565.699 513.026C589.602 489.122 629.777 474.783 646.136 469.392C679.525 458.389 783.866 418.292 795.249 411.72C803.464 406.977 809.842 401.855 818.773 388.196C825.223 378.331 831.127 349.115 833.95 325.591C836.773 302.067 838.883 258.746 838.883 251.984C838.883 248.247 838.124 241.739 833.191 231.874C829.245 223.982 824.465 218.974 817.635 214.041C804.299 203.965 788.19 192.035 783.487 188.999C778.784 185.964 773.622 183.564 765.654 184.067C703.555 187.988 576.55 202.127 553.178 224.286C529.805 246.444 516.524 288.029 512.58 316.106Z" fill="#FDB002" stroke="#FDB002" stroke-width="7"/>
<path d="M743.122 522.065C740.694 566.381 735.154 588.464 725.669 602.882C716.183 617.3 714.134 637.637 722.633 661.313C733.257 690.908 742.187 699.634 748.814 699.634C755.643 699.634 759.058 686.734 762.093 674.213C765.053 662.006 792.447 539.898 795.483 528.136C798.518 516.374 808.762 472.74 807.245 447.698C806.03 427.665 776.39 438.592 771.579 444.663C759.564 456.298 745.551 477.748 743.122 522.065Z" fill="#FDB002" stroke="#FDB002" stroke-width="7"/>
<path d="M703.283 665.107L719.219 705.325C724.479 718.223 731.787 746.598 727.945 758.444C723.392 772.483 689.504 797.839 648.646 821.428C611.083 843.115 561.379 852.415 537.855 855.576C517.746 858.279 510.157 841.158 510.157 792.972C510.157 686.734 508.64 638.81 514.71 631.338C524.575 619.197 543.546 621.853 571.244 646.515C598.942 671.177 632.094 666.669 648.646 662.071C662.305 658.277 672.55 650.309 683.932 648.033C693.039 646.211 700.627 658.656 703.283 665.107Z" fill="#FDB002" stroke="#FDB002" stroke-width="7"/>
</svg>
